<svg xmlns="http://www.w3.org/2000/svg" viewBox="0 0 256 256"><path fill="#DF48B7" d="M226.04 132.5q-4.49-2.6-7.73.81-2.58 2.72-4.65 3.86-.7.38-1.38.23-1.76-.41.11-2.03 2.21-1.91 4.05-4.18 1.66-2.05-1.19-1.19-.87.26-1.75-.04l2.25-2.5q2.08.52 3.19-.77 1.54-1.8 2.06-2.23 1.13-.1 1.1.76-.02.39-.47.93-.91 1.1-.74 1.96.43 2.09 1.76.41 2.87-3.65 2.6-8.02-.07-1.15.21-1.75 2.97-8.31 4.6-15.19.55-2.29-.18-4.7-.3-1.02-.23-1.91.08-.97.14-1.95.59 1.3 1.04 2.65.14.39 1.02 2.65 1.24 3.16.06 5.94a4.84 4.77 52.9 0 0-.33 2.52q.44 3.15 1.38 2.41.49-.38.69-1.53l.58-3.33q.06-.38.41-.88 1.05-1.51-.93-3.87a1.35 1.31-64.6 0 1-.31-.91q.08-2.41-.36-4.24-.91-3.72-.93-4.05-.13-2.21.08-4.42.14-1.43-1.13-4-2.8-5.7-5.62-11.38-.81-1.62-4.19-2.52-1.6-2.44-4-4.08-14.04-9.01-30.75-6.75-.82-.37-1.76-.27-1.69.17-.32-.54 1.2-.63 2.51-.93 1.14-.25 1.54-.77.7-.91.02-1.98a1.3.73-.6 0 0-.8-.44l-3.65-.69a.63.53-83 0 1-.42-.65q.1-1.36-.62-2.48 6-.16 11.99-.33 5.14-.15 8.91.89 9.86 2.7 18.18 8.9 4.31 3.21 6.88 7.97 4.01 7.41 6.56 15.38 2.87 8.96 2.78 16.34-.13 11.93-6.24 23.2-3.52 6.51-6.02 9.69z"/><path fill="#991A77" d="M183 50.46q.72 1.12.62 2.48a.63.53-83 0 0 .42.65l3.65.69a1.3.73-.6 0 1 .8.44q.68 1.07-.02 1.98-.4.52-1.54.77-1.31.3-2.51.93-1.37.71.32.54.94-.1 1.76.27-5.15-.11-9.79 2.04-5.81 1.46-9.89 5.49-2.04 2.03-4.57 4.58-2.25 2.27-3.94 5.24-3.57 6.29-5.6 12.44-2.22 2.81-1.46 6.29-1.77 9.77.29 19.46l-3.84 2.53a.45.43 58.4 0 0-.12.58q.2.35-.08.68-8.66-14.69-3.81-30.6 3.45-11.34 11.81-21.65 1.22 1.81 3.25.71 2.61-1.41 5.19-3.44 2.91-2.29 5.19-3.3 5.24-2.32 10.71-4.05a1.65 1.38 5.2 0 0 .78-.54q1.78-2.45-1.62-2.17-3.35.27-7.92 3.64a1.58 1.31 22.2 0 1-.89.28q-2.62.02-4.47 2.04-2.02 2.21-4.97 2 7.55-6.1 15.56-9.65 2.9-1.28 6.69-1.35z"/><path fill="#B6278E" d="m155.5 66.29 5.25-4.83q2.95.21 4.97-2 1.85-2.02 4.47-2.04a1.58 1.31 22.2 0 0 .89-.28q4.57-3.37 7.92-3.64 3.4-.28 1.62 2.17a1.65 1.38 5.2 0 1-.78.54q-5.47 1.73-10.71 4.05-2.28 1.01-5.19 3.3-2.58 2.03-5.19 3.44-2.03 1.1-3.25-.71z"/><path fill="#ABA5A9" d="M78.25 58.96q-1 1 .29 2.29l-.09 2.26a1.38.49 44.5 0 0 .41.84q.38.49.14.95a.76.53 18.7 0 1-.79.23q-1.64-.43-1.91 1.23a1.07.95 81.7 0 1-.48.73q-1.31.76-2.49 1.71-1.25 1-2.61 1.35-5.82 1.48-11.43 3.67-1.07.42-2.63 1.7-1.12.92-2.72 1.77-2.15 1.14-3.94 3.5-.92 1.21-1.74 1.9-1 .85-2 1.68-1.83 1.51-2.64 2.81-1.32 2.11-1.83 4.54-.8 3.8-.89 4.2-.54 2.37-.42 4.8.13 2.55-.14 4.74-.67 5.66 1.43 11.67a2.38 2.01 2.2 0 0 1.46 1.33l8.5 2.75a1.11.95 86.7 0 1 .64.67l.88 2.43q-4.65.08-8.81-2.4-.96-.57-2.39-.99a1.3 1.27-7.2 0 1-.75-.57q-.95-1.54-2.07-2.95-1.43-1.79-1.95-2.98-1.26-2.95-1.53-6.18-.1-1.27-.57-2.56-.47-1.27-.7-2.59-.33-1.84.48-3.85 1.45-3.61 3.47-6.94.46-.76.6-1.63.76-4.58 2.98-7.05 3.05-3.38 5.75-7.05a1.52 1.41 8.6 0 1 .78-.53q1.3-.38 1.96-.94 3.62-3.09 7.58-5.72.39-.26.92-.31 3.25-.29 4.26-3.49.62-1.98-1.03-.72-1.68 1.27-4.48 1.24-2.31-.03-3.06.44-5.43 3.36-9.91 7.9a.93.78-57.9 0 1-.83.27q-1.41-.38-.49-2.36 5.86-5.79 11.35-8.94 1.42-.81 4.44-1.35l6.7.64a.8.72 79.8 0 0 .69-1.11l-1.21-2.81a1.55.54 74.8 0 0-.53-.77q-4.04-2.63-9.26-.16a1.11 1.11 72.3 0 1-1.56-.81q-.28-1.52-1.33-1.9 5.71-1.76 12.75-.04 6.42 1.57 12.75 3.46z"/><path fill="#979195" d="M52.75 55.54q1.05.38 1.33 1.9a1.11 1.11 72.3 0 0 1.56.81q5.22-2.47 9.26.16a1.55.54 74.8 0 1 .53.77l1.21 2.81a.8.72 79.8 0 1-.69 1.11l-6.7-.64q-1.69-1.96-3.89-.57a1.47 1.35-55.8 0 1-.93.22q-3.5-.47-6.34 1.53-.42.29-.89.35-6.36.8-11.14 6.07-2.59 2.87-6.81 1.9 8.19-8.46 17.81-14.15 2.42-1.43 5.69-2.27z"/><path fill="#F9F2F7" d="M217.25 65.96q2.02 6.46 4.06 10.73 3.22 6.71 5.09 13.1 1.21 4.12 1.22 8.55.01 4.37-.44 8.72-.12 1.18-1.01 4.11-.62 2.07-.61 4.27.31-2-1-1.13a4.36 1.05-71 0 0-1.56 2.44q-2.15 4.97-6 8.75-1.02 1-1.25 1.96l-2.25 2.5q-4.29 3.89-10.63 6.49a1.57 1.56 53.6 0 1-1.58-.24q-20.37-16.74-47.29-16.67-1.87-2.03-2.46-4.79-2.06-9.69-.29-19.46.7-.04.85-.72.53-2.27 1.15-4.53 3.38-6.28 5.56-8.98 2.48-3.05 3.83-5.79 1.33-2.7 2.58-3.94 4.55-4.52 10.2-7.67 1.37-.76 1.29-2.41 4.64-2.15 9.79-2.04 16.71-2.26 30.75 6.75zM78.25 58.96q7.41 1.91 14.44 6.6 7.6 5.08 12 12.46 2.49 4.15 4.68 11.84 1.64 5.75 3.13 12.39.91 4.06.9 7.5-.01 6.37-4.51 10.64-.35.34-.89.52-.51.17-1 .38h-1.25q-17.57-2.53-33.5 5-1.97.77-3.82 1.74-8.44 4.46-17.93 5.51-1.34-.72-.75-2.25 1.61-1.21 4-1.04 1.56.11 3.04-1 .64-.41 1.26-.22.66.21.94.16 2.71-.46 2.4-3.26a1.1 1.09 13.5 0 0-.48-.78l-3.99-2.64a1.13 1.12-78.3 0 1-.49-.76q-.58-3.2-3.59-3.85-1.55-.34-2-.76-1.01-.97-.34-2.43 3.86 2.04 8.08 2.6 2.96.39 8.33.53 10.61.29 19.63-5.64.41-.26.85-.35.47-.1.93-.19a1.03 1.01 7.1 0 0 .71-.54q2.62-5.45 3.97-7.62 2.56-4.11-2-5.54-2.65-1.62-5 .58-5.48-1.02-9.97-4.17-1.86-1.31-2.56-3.48-.69-2.14-1.01-4.39 1.58-2.71.83-5.75-.17-1.03-1.31-.87-1.86.27-3.73.58-.72-.25-.39-.82 2.45-4.21 7.98-3.29a1.73 1.7 3.6 0 1 1.44 1.61q.13 2.73 1.12 4.37.51.85.74-.12.43-1.79.69-3.41.36-2.24 1.32-3.09 1.58-1.39 4.37-1.49a2.68 2.66-15.5 0 1 2.41 1.35q1.82 3.2 4.44.8.15-.13.84-.61.78-.54-.21-1.3-.9-2.28-4.15-5.03a2.83 2.8-78.4 0 1-.9-1.38q-1.14-3.79-3.66-.55-1.85-4.03-5.75-6.25-1.29-1.29-.29-2.29z"/><path fill="#7E787C" d="M59.25 62.46q-3.02.54-4.44 1.35-5.49 3.15-11.35 8.94l-4.17 3.83a1.6 1.21 79.7 0 0-.43.85q-.86 4.8-4.04 10.12-1.21 2.04-1.44 4.39-.19 1.98-1.64 4.82-1.29 2.54.44 4.8.83 1.09.11 5.66a2.06 2.05 38.7 0 0 .12 1.05q1.15 2.89 1.61 5.73.58 3.59 3.17 6.06.83.8 2.28 3.32.71 1.23 1.64 1.68 1.12.54 2.38.66a1.42 1.26-16.6 0 1 .84.39q2.11 2.17 5.17 2.35l5.51.25q.31.01.94-.18.7-.21.84.72-1.48 1.11-3.04 1-2.39-.17-4 1.04-2.07-.08-3.5.21-3.13.64-5.59-.96-.27-.18-.65-.74-.51-.75-1.51-.84.58-.22.71-.71a1.13.76 39.4 0 0-.27-.89q-1.93-2.34-4.69-3.61-1.73-.79-2.75-3.5-1.89-5.01-3.07-10.23-.99-4.41.6-8.64.97-2.57-.5-4.42a3.5 3.5 25.7 0 1-.77-2.19q-.03-6.95 1.64-11.99a1.76 1.49-13.7 0 1 .56-.77q2.58-2 3.48-4.57 1.42-4.08-.89-2.18-.67.56-1.28.67-2.5.5-4.48-1.18l2.46-2.79q4.22.97 6.81-1.9 4.78-5.27 11.14-6.07.47-.06.89-.35 2.84-2 6.34-1.53a1.47 1.35-55.8 0 0 .93-.22q2.2-1.39 3.89.57z"/><path fill="#C4BFC3" d="M78.54 61.25q3.9 2.22 5.75 6.25-.77 1.08-1.81.87-1.48-.28-1.63-.26-1.67.27-.36 1.95a1.45.87 38.3 0 1 .33.87q-.08 1.2-1.35.85-1.16-.32-1.48-.36-1.24-.12-2.48-.26-2.7-.3-1.75 2.11a.55.54-12.1 0 1-.48.74q-3.27.22-6.7-.1-.12-.02-1.7-.52-1.07-.34-1.9.65a1.34 1.13-70 0 1-.78.45q-3.07.42-5.46 2.2-3 2.24-3.17 2.35-5.11 3.47-7.81 9.21-.45.96-.22 2-.28.99-.9 1.75-.94 1.13-1.07 1.58-.65 2.24 2.93 1.71-.43.68-.21 1.46-1 2.1-1.01 4.33-.02 4-.03 4.35-.22 6 5.25 9.28-.67 1.46.34 2.43.45.42 2 .76 3.01.65 3.59 3.85a1.13 1.12-78.3 0 0 .49.76l3.99 2.64a1.1 1.09 13.5 0 1 .48.78q.31 2.8-2.4 3.26-.28.05-.94-.16-.62-.19-1.26.22-.14-.93-.84-.72-.63.19-.94.18l-5.51-.25q2.82-1.65 6.01-2.36a1.08.73-1.9 0 0 .73-.53q.17-.44-.09-.76a1.13.41-7.3 0 0-.88-.2l-2.02.1-.88-2.43a1.11.95 86.7 0 0-.64-.67l-8.5-2.75a2.38 2.01 2.2 0 1-1.46-1.33q-2.1-6.01-1.43-11.67.27-2.19.14-4.74-.12-2.43.42-4.8.09-.4.89-4.2.51-2.43 1.83-4.54.81-1.3 2.64-2.81 1-.83 2-1.68.82-.69 1.74-1.9 1.79-2.36 3.94-3.5 1.6-.85 2.72-1.77 1.56-1.28 2.63-1.7 5.61-2.19 11.43-3.67 1.36-.35 2.61-1.35 1.18-.95 2.49-1.71a1.07.95 81.7 0 0 .48-.73q.27-1.66 1.91-1.23a.76.53 18.7 0 0 .79-.23q.24-.46-.14-.95a1.38.49 44.5 0 1-.41-.84l.09-2.26z"/><path fill="#EFB7DF" d="M176.71 61.25q.08 1.65-1.29 2.41-5.65 3.15-10.2 7.67-1.25 1.24-2.58 3.94-1.35 2.74-3.83 5.79-2.18 2.7-5.56 8.98-.75-.15-.54-1.04 2.03-6.15 5.6-12.44 1.69-2.97 3.94-5.24 2.53-2.55 4.57-4.58 4.08-4.03 9.89-5.49z"/><path fill="#979195" d="m53.25 124.71 2.02-.1a1.13.41-7.3 0 1 .88.2q.26.32.09.76a1.08.73-1.9 0 1-.73.53q-3.19.71-6.01 2.36-3.06-.18-5.17-2.35a1.42 1.26-16.6 0 0-.84-.39q-1.26-.12-2.38-.66-.93-.45-1.64-1.68-1.45-2.52-2.28-3.32-2.59-2.47-3.17-6.06-.46-2.84-1.61-5.73a2.06 2.05 38.7 0 1-.12-1.05q.72-4.57-.11-5.66-1.73-2.26-.44-4.8 1.45-2.84 1.64-4.82.23-2.35 1.44-4.39 3.18-5.32 4.04-10.12a1.6 1.21 79.7 0 1 .43-.85l4.17-3.83q-.92 1.98.49 2.36a.93.78-57.9 0 0 .83-.27q4.48-4.54 9.91-7.9.75-.47 3.06-.44 2.8.03 4.48-1.24 1.65-1.26 1.03.72-1.01 3.2-4.26 3.49-.53.05-.92.31-3.96 2.63-7.58 5.72-.66.56-1.96.94a1.52 1.41 8.6 0 0-.78.53q-2.7 3.67-5.75 7.05-2.22 2.47-2.98 7.05-.14.87-.6 1.63-2.02 3.33-3.47 6.94-.81 2.01-.48 3.85.23 1.32.7 2.59.47 1.29.57 2.56.27 3.23 1.53 6.18.52 1.19 1.95 2.98 1.12 1.41 2.07 2.95a1.3 1.27-7.2 0 0 .75.57q1.43.42 2.39.99 4.16 2.48 8.81 2.4z"/><path fill="#D4CED2" d="M93 74.46q-1.67-.58-3.12-1.62-.04-.03-1.53-.8-.91-.47-1.02-1.59a.8.63-88.3 0 0-.49-.66q-1.75-.4-2.68 1.2-.26.46-.64.71-2.24 1.45-3.69 3.69a.71.68-65.6 0 1-.75.3q-7.22-1.84-14.62-.83-.92.12-1.73.71-.78.56-1.57 1.09-1.01.66-2.65 1.03-2.44.55-4.6 1.82-.69.4-1.88 1.92-.88 1.12-2.25 1.7a1.6 1.3-1.6 0 0-.72.62q-.43.74-.82 1.5-.36.7-1.26 1.8-1.14 1.37-1.44 3.2-.23-1.04.22-2 2.7-5.74 7.81-9.21.17-.11 3.17-2.35 2.39-1.78 5.46-2.2a1.34 1.13-70 0 0 .78-.45q.83-.99 1.9-.65 1.58.5 1.7.52 3.43.32 6.7.1a.55.54-12.1 0 0 .48-.74q-.95-2.41 1.75-2.11 1.24.14 2.48.26.32.04 1.48.36 1.27.35 1.35-.85a1.45.87 38.3 0 0-.33-.87q-1.31-1.68.36-1.95.15-.02 1.63.26 1.04.21 1.81-.87 2.52-3.24 3.66.55a2.83 2.8-78.4 0 0 .9 1.38q3.25 2.75 4.15 5.03z"/><path fill="#F6C4E9" d="M217.25 65.96q2.4 1.64 4 4.08Q227.6 81.8 229.79 95q-.06.98-.14 1.95-.07.89.23 1.91.73 2.41.18 4.7-1.63 6.88-4.6 15.19l-4.46 5.71q-.52.43-2.06 2.23-1.11 1.29-3.19.77.23-.96 1.25-1.96 3.85-3.78 6-8.75a4.36 1.05-71 0 1 1.56-2.44q1.31-.87 1 1.13-.01-2.2.61-4.27.89-2.93 1.01-4.11.45-4.35.44-8.72-.01-4.43-1.22-8.55-1.87-6.39-5.09-13.1-2.04-4.27-4.06-10.73z"/><path fill="#E5DFE3" d="M93 74.46q.99.76.21 1.3-.69.48-.84.61-2.62 2.4-4.44-.8a2.68 2.66-15.5 0 0-2.41-1.35q-2.79.1-4.37 1.49-.96.85-1.32 3.09-.26 1.62-.69 3.41-.23.97-.74.12-.99-1.64-1.12-4.37a1.73 1.7 3.6 0 0-1.44-1.61q-5.53-.92-7.98 3.29-.33.57.39.82l-6.75 3.33q-7.53 3.03-12.5 9.42-1.96.17-2.5 2.08-3.58.53-2.93-1.71.13-.45 1.07-1.58.62-.76.9-1.75.3-1.83 1.44-3.2.9-1.1 1.26-1.8.39-.76.82-1.5a1.6 1.3-1.6 0 1 .72-.62q1.37-.58 2.25-1.7 1.19-1.52 1.88-1.92 2.16-1.27 4.6-1.82 1.64-.37 2.65-1.03.79-.53 1.57-1.09.81-.59 1.73-.71 7.4-1.01 14.62.83a.71.68-65.6 0 0 .75-.3q1.45-2.24 3.69-3.69.38-.25.64-.71.93-1.6 2.68-1.2a.8.63-88.3 0 1 .49.66q.11 1.12 1.02 1.59 1.49.77 1.53.8 1.45 1.04 3.12 1.62z"/><path fill="#E465C2" d="M221.25 70.04q3.38.9 4.19 2.52 2.82 5.68 5.62 11.38 1.27 2.57 1.13 4-.21 2.21-.08 4.42.02.33.93 4.05.44 1.83.36 4.24a1.35 1.31-64.6 0 0 .31.91q1.98 2.36.93 3.87-.35.5-.41.88l-.58 3.33q-.2 1.15-.69 1.53-.94.74-1.38-2.41a4.84 4.77 52.9 0 1 .33-2.52q1.18-2.78-.06-5.94-.88-2.26-1.02-2.65-.45-1.35-1.04-2.65-2.19-13.2-8.54-24.96z"/><path fill="#666064" d="M38.5 128.96q-2.27.82-2.29 3.29l-2.21-.71q.9-.07.81-.85-.2-1.83-2.25-2.5-2.53-.83-1.81 1.52-1.6-.96-2.81-2.4-8.1-9.6-8.63-20.12-.56-11.17 2.18-21.99 1.47-5.83 5.3-10.45 1.98 1.68 4.48 1.18.61-.11 1.28-.67 2.31-1.9.89 2.18-.9 2.57-3.48 4.57a1.76 1.49-13.7 0 0-.56.77q-1.67 5.04-1.64 11.99a3.5 3.5 25.7 0 0 .77 2.19q1.47 1.85.5 4.42-1.59 4.23-.6 8.64 1.18 5.22 3.07 10.23 1.02 2.71 2.75 3.5 2.76 1.27 4.69 3.61a1.13.76 39.4 0 1 .27.89q-.13.49-.71.71z"/><path fill="#0A0408" d="M73.29 80.75q-1.44 2.72-.83 5.75.32 2.25 1.01 4.39.7 2.17 2.56 3.48 4.49 3.15 9.97 4.17l-1.45.31q-.48.1 0 .18 3.37.58 6.45-1.07 4.56 1.43 2 5.54-1.35 2.17-3.97 7.62a1.03 1.01 7.1 0 1-.71.54q-.46.09-.93.19-.44.09-.85.35-9.02 5.93-19.63 5.64-5.37-.14-8.33-.53-4.22-.56-8.08-2.6-5.47-3.28-5.25-9.28.01-.35.03-4.35.01-2.23 1.01-4.33 2.17-.52 3-2.5 2.55-1.69 4.02-3.19 3.4-3.46 7-5.5 1.1-.62 1.19-1.77l6.75-3.33q1.87-.31 3.73-.58 1.14-.16 1.31.87z"/><path fill="#7E787C" d="M73.29 80.75q.75 3.04-.83 5.75-.61-3.03.83-5.75z"/><path fill="#666064" d="M61.5 83.79q-.09 1.15-1.19 1.77-3.6 2.04-7 5.5-1.47 1.5-4.02 3.19.1-.66-.29-1.04 4.97-6.39 12.5-9.42z"/><path fill="#E465C2" d="M152.71 89q-.21.89.54 1.04-.62 2.26-1.15 4.53-.15.68-.85.72-.76-3.48 1.46-6.29z"/><path fill="#979195" d="M49 93.21q.39.38.29 1.04-.83 1.98-3 2.5-.22-.78.21-1.46.54-1.91 2.5-2.08z"/><path fill="#666064" d="M91 97.96q-3.08 1.65-6.45 1.07-.48-.08 0-.18l1.45-.31q2.35-2.2 5-.58z"/><path fill="#BE2B96" d="M151.54 114.75q.59 2.76 2.46 4.79l-5.25 1.42-1.25-2.42q.28-.33.08-.68a.45.43 58.4 0 1 .12-.58l3.84-2.53z"/><path fill="#EC77CD" d="M225.46 118.75q-.28.6-.21 1.75.27 4.37-2.6 8.02-1.33 1.68-1.76-.41-.17-.86.74-1.96.45-.54.47-.93.03-.86-1.1-.76l4.46-5.71z"/><path fill="#DA39AF" d="M213.5 129.96q.88.3 1.75.04 2.85-.86 1.19 1.19-1.84 2.27-4.05 4.18-1.87 1.62-.11 2.03.68.15 1.38-.23 2.07-1.14 4.65-3.86 3.24-3.41 7.73-.81-.5.98-1.38 1.65-6.97 5.3-14.72 9.37a.44.44 59.1 0 0-.16.64q2.56 3.68 6.22 6.3-.2 1.11-1.25 1.54-2.57 1.05-4.5-1-5.05-5.36-11.18-9.34-.34-.22-6.28-4.26-3.5-2.38-7.48-3.94-4.56-1.78-8.84-4.13-1.94-1.07-3.7-1.74-1.92-.74-3.84-1.5-3.2-1.27-5.95-1.43-8.35-.48-16.46 1.92-5.44 1.61-9.77 1.17-.82-.08-1.5-1.29 6.28-3.85 13.5-5.5l5.25-1.42q26.92-.07 47.29 16.67a1.57 1.56 53.6 0 0 1.58.24q6.34-2.6 10.63-6.49z"/><path fill="#C833A0" d="M105.75 121.29q-.13 1.14 1 .92 4.52.78 8 3.75-2.44.78-5 .5-1.06-2.78-4.04-2.13-2.11.46-3.52-1.27a3.49.66 4.6 0 0-2.75-.75q-2.47-.28-4.44 1.23-3.71-.16-6.67 2.09a1.45 1.35 25.3 0 1-.88.28q-2.04-.01-3.17 1.43-.34.44-.73.63-9.6 4.62-18.09 11.03-4.81 3.31-7.94 8.2-.5.78.42 1.11 1.32.47.12 1l-4.19 1.87a.95.89 82 0 0-.53.75q-.14 1.13.87 1.59a.92.75-85.9 0 1 .46.66l.1.55a.63.56 73.8 0 1-.3.64l-2.72 1.34q-.9-1-1.94-.65-6.59 2.23-13.32 3.98-.1.03-1.08.34-2.73.86-2.88-2.04a1.31 1.3 82 0 1 1-1.33q9.74-2.24 16.95-5.37a1.36 1.14-4.6 0 0 .67-.66q.76-1.85-1.15-2.17a1.65 1.22-46.7 0 0-.94.17q-8.86 4.6-18.83 5.46-.53.05-1.37.43-1.44.65-1.36-1.33 6.44-2.44 13.02-4.48 2.93-.91 5.61-2.38 12.79-7.03 23.6-16.83.04-.04 1.28-.94 1.27-.93 1.24-2.62 15.93-7.53 33.5-5z"/><path fill="#302B32" d="M105.75 121.29H107l-.25.92q-1.13.22-1-.92z"/><path fill="#B6278E" d="M109.75 126.46q-7.48 2.34-15.01.18a.54.44-76.5 0 1-.3-.61l.56-2.49q1.97-1.51 4.44-1.23a3.49.66 4.6 0 1 2.75.75q1.41 1.73 3.52 1.27 2.98-.65 4.04 2.13z"/><path fill="#E448BC" d="m95 123.54-.56 2.49a.54.44-76.5 0 0 .3.61q7.53 2.16 15.01-.18 2.56.28 5-.5 5.66 3.5 10.18 8.75a1.06 1.05 44.1 0 0 1.62-.02q4.07-5.02 8.7-8.23.68 1.21 1.5 1.29 4.33.44 9.77-1.17 8.11-2.4 16.46-1.92 2.75.16 5.95 1.43 1.92.76 3.84 1.5 1.76.67 3.7 1.74 4.28 2.35 8.84 4.13 3.98 1.56 7.48 3.94 5.94 4.04 6.28 4.26 6.13 3.98 11.18 9.34 1.93 2.05 4.5 1 1.05-.43 1.25-1.54 7.52 2.98 15.5 1.58 1.69 2.07.46 4.22a.9.82-72.7 0 1-.77.45l-10.76-.41q-2.69-.1-4.35.51-3.36 1.23-6.33-.56-1.51-.91-7.1-3.6-3.47-1.67-7.34-3.02l-14.06-4.88q-8.88-3.08-15.15-3.65-.78-.08-2.68.12-1.77.17-2.73-.41-2.14-1.29-4.19.19-2.68 1.94-.19 2.69l5.46 1.64a1.6 1.52 42.9 0 0 .96-.01q2.93-1.01 4.93.76 1.84 1.62 4.27 1.98 8.42 1.23 17.28 3.9 1.43.44 2.6 1.36 3.89 3.07 8.01 4.35.49.15 2.41.22 1.41.05 2.34 1 1.72 1.77 1.78 1.81 5.87 4.06 13.22 3.55 2.62-.18.33-1.1-.37-.14-.82-.19-3.74-.35-7.33-1.46-1.67-.52.06-1.19 3.09-1.19 6.42-.84 5.11.55 10.21.15.52-.04 2.56-.5 1.36-.31 2.63-.11a.89.88 23.1 0 1 .57 1.41q-1.73 2.26-4.33 3.36-5.07 2.13-10.37 3.54-2.76.73-6.2.45-7.41-.6-14.87-.35-.4.01-.91.28-1.2.63-3.77.8-2.91.19-5.83.04-.79-.04-1.29.23-.6.32-1.07.84a.95.85-63.1 0 1-.8.31q-6.7-1.11-13.45-1.83-1.01-.11-1.6-.31-2.12-.71-.56-1.85a3.04 3.04 28.4 0 1 1.92-.57q3.02.14 3.95-.14 1.2-.38-1.32-1.42-8.34-3.41-9.89-4.36-3.8-2.34-8.18-2.83-.18-.02-2.68.33-1.73.23-2.62-1.76-1.09-2.4-3.37-3.03-2.46-.67-3.08-1.06-1.78-1.1-4.94-3.28-1.92-1.32-2 .88a1 .95 75.2 0 1-.43.78q-.75.5-1.51 1-.33.23-.47.56-.53 1.27.85.54.35-.19.69-.69 1.11-1.59 2.87-.57.79.46 2.33 2.48.13.18.76.57l2.55 1.61a.87.61-71.9 0 1 .25.83q-1.45 7.12 7.26 5.08 2.17-.51 3.26.83l4.05 4.93a1.58.93-76.6 0 1 .28.91q.09 2.83 2.59 3.79a1.89 1.22-29.8 0 0 .96.05q1.55-.3 2.97.14 2.48.76 2.55.78 10.41 1.87 21.01 1.94a1.56 1.56-84.3 0 1 1.52 1.86q-.55 2.79 2.99 1.63 1.05-.34 4-.44l6.73-.22a.93.75-14.8 0 1 .76.34l.76 1.12a.93.79-16.6 0 0 .8.35q2.15-.13 4 .86a1.44 1.26 50.4 0 0 .93.15l3.2-.7a.81.8 70.3 0 0 .54-1.16q-.91-1.76 2.43-2.55 1.68-.39 3.11-1.36 2.04-1.4 4.47-1.93 2.16-.48 3.08-1.25 1.33-1.11 2.24-2.65.89-1.51 1.63.08 1.72 3.7-.93 6.46-2.56 2.66-2.61 2.73-3.04 3.76-6.22 5.62-6.67 3.89-10.26 9.16-.54.78-1.12 1.01-.74.28-1.57.21-.54-.04-.95.13-2.95 1.28-6.11 1.66-2.34.27-3.76.77-1.83.64-3.65 1.31-2.15.79-5.02.31-4.47-.75-9.75.25-2.21.42-10.91-1.14-.04 0-3.24-.84-1.87-.49-3.84-.32-.53.04-.98-.15-3.79-1.57-7.75-2.64-3.34-.9-5.56-2.33-11.74-7.59-20.66-18.67a.82.74 56.9 0 0-.94-.25l-6.12 3.05-4.5 4.33q-2.52.01-.26-3.26a2.09 2.08 50.5 0 0 .19-2.01q-.8-1.82-1.24 1.17-.18 1.19-1.64 3.16a.68.64 45.6 0 0 .01.78q1.14 1.61-1.37 1.56-1.9-.04-3.58 1.47a.94.53-47.4 0 1-.84.27q-.51-.23-.43-1.2a2.09 2.09-11.8 0 1 1.1-1.68q2.06-1.1 2.06-3.12 0-.7-.52-.24-2.43 2.11-4.55 3.99-2.38 2.1-5.38 1.39a.89.73 86.2 0 1-.58-.62q-.44-1.6-2.16-.64-2.57 1.45-6.41 4.38a1.15.7-47.6 0 1-.9.26l-3.82-1.2a.36.28-56.2 0 1-.04-.55l.86-.91q9.79-3.9 18.75-9 1.61-.91-.24-1.04-1.86-.13-3.4.88-4.63 3.03-9.72 5.15-.08.03-2.54 1.3-2.01 1.04-4.3.7-.5-.08-.07-.36 8.08-5.28 15.39-11.59.44-.38-.08-.54-.61-.17-1.05.26-.64.62-.72.67-5.15 3.4-9.02 4.53-10.04 2.94-16.66 7.11-2.95 1.87-6.34 2.68-1.48.48-2.29-.56a1.15.65-66.2 0 1-.09-.89l.88-3.54a1.08.82-90 0 1 .52-.68q8.43-3.57 16.86-7.15.52-.22 5.91-1.92 3.68-1.16 6.68-3.72.79-.67 1.63-1 .89-.35 1.79-.69.4-.15.62-.44.66-.85-.28-.87-.88-.02-1.72.24-4.91 1.52-7.29.84a1.11.85 29.6 0 0-.87.12l-3.77 2.84q-.42.32-.89.37-5.58.7-10.49 3.38-2.8 1.54-1.4-1.42a2.45 2.45-80.8 0 1 1.93-1.39q1.27-.15 2.69-1.68a1.68 1.02-63.5 0 1 .81-.51q.72-.14 1.39.11a1.45 1.01 37.3 0 0 .91.04q9.26-3.35 18.31-7.22 1-.42 3.6-.77 2.43-.32 4.22-2.16a.52.43-49.9 0 0 0-.73q-.27-.18-.6-.08-3.87 1.26-6.89 1.99-.07.01-4.77.53-2.74.31-4.97 1.93-2.53 1.84-3.74 2.4-2.25 1.04-4.44 2.22-.69.37-1.18.47-1.28.23-1.23-.67a1.21.79-23.6 0 1 .51-.78q1.31-.94 2.5-2.03 1.22-1.12 2.66-1.68 3.69-1.45 7.07-3.51 3.1-1.88 5.17-2.86 2.68-1.26 5.31-2.6a1.17 1.14 41.2 0 1 .91-.05q3.35 1.17 4.28 1.08 3.11-.3 1.23-3.27a1.01.99-15.1 0 0-.8-.45q-1.42-.06-2.58-.13-1.32-.08-2.47.47-8.76 4.13-10.94 5.82-1.57 1.21-2.9 1.7-2.06.77-2.12.8-3.5 1.68-7.19 2.9-.56.19-.95.02-.48-.21-.79-.67a.67.62 63.4 0 0-.72-.27q-2.53.84-2.36-1.39a1.22 1.21 79.7 0 1 .68-.99q9.08-4.22 16.18-8.17.13-.08 1.13-.44.78-.27 1.07-1.07a.55.41-77.5 0 1 .41-.36l.32-.01a.66.45 83.2 0 1 .5.57q.16.98 1.37 1.03 3.29.13 1.01-2.13-.97-.96.41-.79l1.95.24a.79.74-71 0 0 .75-.4q1.43-2.55-1.22-2.2-.79.1-1.83.67-1.8.98-3.68 1.82a1.12.95 42.9 0 1-.89-.04q-1.67-.8-3.02.55-2.46 2.47-5.76 3.49a.34.32 84 0 1-.41-.35q.08-1.34-1.42-.87a1.44.85-31.1 0 1-.93.01q-.64-.29-1.04-.91a.59.55 61.3 0 0-.69-.23q-3.37 1.46-7.56.99-1.09-.12-.22-.79 1.75-1.33 4.23-1.4 1.49-.04 4.12-2.18a1.65 1.63 22.3 0 1 .87-.36q3.06-.28 5.78-1.67 1.4-.71 2.93-.5.98.13 1.45-.11.98-.49.76-1.46a.6.53-10.3 0 0-.66-.4q-9.13 1.33-17.15 5.84-1.2.68-1.91.82-2.16.44-1.79-1.74a1.11 1-11.9 0 1 .54-.74q6.59-3.73 13.83-5.94 6.01-1.83 11.16-5.16 1.52-.98-.31-.68l-3.56.58a1.83.96 5.5 0 0-.86.35q-2.32 1.98-5.7 1.6-1.15-.13-2.06.5-1.32.91-1.7 1.06-6.34 2.56-12.82 6.61a3.91 3.88 32.4 0 1-2.57.56q-1.31-.17-.89-1.48 8.49-6.41 18.09-11.03.39-.19.73-.63 1.13-1.44 3.17-1.43a1.45 1.35 25.3 0 0 .88-.28q2.96-2.25 6.67-2.09zm21.63 8.53q-1.16 1.61 1.11 1.48.45-.03.96.16.99.37 1.54-.29a.75.63 49.2 0 0-.01-.84q-1.43-2.05-3.92-2.45-.63-.1-.29.39l.57.8a.72.58 48.4 0 1 .04.75zm-8.24 1.69 2.27.95q1.47.62 1.09-.94-.4-1.67-2-1.58a1.35 1.24 61.1 0 1-.86-.29q-.91-.72-2.83-.96-5.26-.67-8.55.02-.48.1-.76.43-.89 1.04 1 .86 2.23-.21 8.06 1.44.96.27 1.67.06a1.54.97-31.8 0 1 .91.01zm12.57 2.81q.46-1.55-.85-1.2-.4.11-.93.63-.87.85-2.12 1.02a1.11.77 4.1 0 0-.77.46q-.83 1.55 2.91.72a2.37 2.37 2.1 0 0 1.76-1.63zm-15.26.31-4.89-.55a.85.83 19.2 0 0-.81.38q-.61.98 1.19.85 1.46-.1 1.94 1.46a1.03.72-39.7 0 1-.23.84q-.67.82-.08 1.6.47.61 1.2.48.93-.16.83-1.43-.17-2.1.99-3.14.47-.42-.14-.49zm90.684 8.968a1.25 1.25 0 0 0-.484-1.7l-10.8-6.012a1.25 1.25 0 0 0-1.7.484l-.185.332a1.25 1.25 0 0 0 .485 1.7l10.8 6.012a1.25 1.25 0 0 0 1.7-.484l.185-.333zm-73.354-1.388q-1.71 4.18 2.2 3.51a.82.82 71.3 0 0 .58-1.19l-1.23-2.36q-.86-1.65-1.55.04zm-7.02 7.55q2.35.66 2.64-1.2a.43.4.9 0 0-.47-.46q-1.48.14-2.33.72-.93.64.16.94zm69.55 5.93q-1.98-.94-2.81-1.19-3.06-.92-5.86-2.45-3.12-1.71-6.64-2.23-.55-.08-.95.15-1.14.66.44 1.29 3.71 1.48 7.29 3.25 2.35 1.16 5.87 1.27a2.27 2.25-22 0 1 1.48.62q1.57 1.49 2.97 2.85 1.64 1.6 3.45 1.98 3.06.64 6.21.11a1.44 1.31 52.9 0 1 .91.17q1.29.74 2.77.71a.39.37-11.3 0 0 .36-.51q-.46-1.12-2.05-1.46-6.99-1.51-13.44-4.56zm-62.1 2.41a.76.76-68.9 0 0 .51 1.15q1.11.21 2.04-1.31a1.38 1.32-35.8 0 0 .17-.93q-.5-2.46-2.72 1.09zm-4.827 1.288a1.68.67 134 0 0 1.649-.743 1.68.67 134 0 0 .685-1.674 1.68.67 134 0 0-1.649.744 1.68.67 134 0 0-.685 1.673zm-4.34 9.171a3.25.54 131.1 0 0 2.544-2.094 3.25.54 131.1 0 0 1.73-2.804 3.25.54 131.1 0 0-2.544 2.094 3.25.54 131.1 0 0-1.73 2.804zm44.351 7.126a6.33 1.19 11.9 0 0-5.949-2.47 6.33 1.19 11.9 0 0-6.439-.14 6.33 1.19 11.9 0 0 5.949 2.47 6.33 1.19 11.9 0 0 6.439.14zm37.316 2.355.13-.04q.57-.19-.12-.19-4.97.06-13.72.94-10.62 1.07-25.62.28-.1 0-1.26-.13-1.93-.23-1.48 1.32a1.13.97 6.4 0 0 .63.67q3.4 1.4 8.48 1.61 16.21.66 29.5-1.75 2.62-.48 3.27-2.55a.3.19-7.7 0 1 .19-.16z"/><path fill="#302B32" d="m34 131.54-3.25-1.83q-.72-2.35 1.81-1.52 2.05.67 2.25 2.5.09.78-.81.85z"/><path fill="#979195" d="M38.5 128.96q1 .09 1.51.84.38.56.65.74 2.46 1.6 5.59.96 1.43-.29 3.5-.21-.59 1.53.75 2.25-7.33 1.46-14.29-1.29.02-2.47 2.29-3.29z"/><path fill="#D137A9" d="M67 182.79q-4.11 2.35-8.4 2.85a1.78 1.72 55.5 0 1-1.08-.22q-2.55-1.41-2.39-3.14.12-1.29 2.04-2.4 2.3-1.33 4.8-2.27a1.5 1.32 1.4 0 0 .73-.61q1.21-2.19-1.22-1.63a1.41 1.03-30.6 0 1-.93-.09q-1.62-.89.39-1.84 4.34-2.06 7.64-2.6.82-.13 1.24-.47 1.11-.91-.37-1.67a1.39 1.02-33.8 0 0-.93-.04l-2.29.71a.8.7-25.9 0 1-.84-.23q-.51-.7.43-1.32 1.32-.87 1.01-2.28a.56.53-10 0 0-.63-.41q-5.63.88-8.89 2.93-2.39 1.52-4.25 2.14-1.12.38-2.05.81-3.51 1.63-1.51-2.72 6.55-1.65 11.91-5.67a.51.46-39.5 0 0 .11-.71q-.62-.66-1.56-.36a1.58.93-71.7 0 0-.72.63q-1.75 2.72-4.74 3.07-5.09.59-10.19 1.13a1.57 1.35 52.9 0 1-.92-.2q-1.36-.78-2.64-.68-2.76.22-5.33-1.14-.9-.47.02-.86l16.31-6.79 2.72-1.34a.63.56 73.8 0 0 .3-.64l-.1-.55a.92.75-85.9 0 0-.46-.66q-1.01-.46-.87-1.59a.95.89 82 0 1 .53-.75l4.19-1.87q1.2-.53-.12-1-.92-.33-.42-1.11 3.13-4.89 7.94-8.2-.42 1.31.89 1.48a3.91 3.88 32.4 0 0 2.57-.56q6.48-4.05 12.82-6.61.38-.15 1.7-1.06.91-.63 2.06-.5 3.38.38 5.7-1.6a1.83.96 5.5 0 1 .86-.35l3.56-.58q1.83-.3.31.68-5.15 3.33-11.16 5.16-7.24 2.21-13.83 5.94a1.11 1-11.9 0 0-.54.74q-.37 2.18 1.79 1.74.71-.14 1.91-.82 8.02-4.51 17.15-5.84a.6.53-10.3 0 1 .66.4q.22.97-.76 1.46-.47.24-1.45.11-1.53-.21-2.93.5-2.72 1.39-5.78 1.67a1.65 1.63 22.3 0 0-.87.36q-2.63 2.14-4.12 2.18-2.48.07-4.23 1.4-.87.67.22.79 4.19.47 7.56-.99a.59.55 61.3 0 1 .69.23q.4.62 1.04.91a1.44.85-31.1 0 0 .93-.01q1.5-.47 1.42.87a.34.32 84 0 0 .41.35q3.3-1.02 5.76-3.49 1.35-1.35 3.02-.55a1.12.95 42.9 0 0 .89.04q1.88-.84 3.68-1.82 1.04-.57 1.83-.67 2.65-.35 1.22 2.2a.79.74-71 0 1-.75.4l-1.95-.24q-1.38-.17-.41.79 2.28 2.26-1.01 2.13-1.21-.05-1.37-1.03a.66.45 83.2 0 0-.5-.57l-.32.01a.55.41-77.5 0 0-.41.36q-.29.8-1.07 1.07-1 .36-1.13.44-7.1 3.95-16.18 8.17a1.22 1.21 79.7 0 0-.68.99q-.17 2.23 2.36 1.39a.67.62 63.4 0 1 .72.27q.31.46.79.67.39.17.95-.02 3.69-1.22 7.19-2.9.06-.03 2.12-.8 1.33-.49 2.9-1.7 2.18-1.69 10.94-5.82 1.15-.55 2.47-.47 1.16.07 2.58.13a1.01.99-15.1 0 1 .8.45q1.88 2.97-1.23 3.27-.93.09-4.28-1.08a1.17 1.14 41.2 0 0-.91.05q-2.63 1.34-5.31 2.6-2.07.98-5.17 2.86-3.38 2.06-7.07 3.51-1.44.56-2.66 1.68-1.19 1.09-2.5 2.03a1.21.79-23.6 0 0-.51.78q-.05.9 1.23.67.49-.1 1.18-.47 2.19-1.18 4.44-2.22 1.21-.56 3.74-2.4 2.23-1.62 4.97-1.93 4.7-.52 4.77-.53 3.02-.73 6.89-1.99.33-.1.6.08a.52.43-49.9 0 1 0 .73q-1.79 1.84-4.22 2.16-2.6.35-3.6.77-9.05 3.87-18.31 7.22a1.45 1.01 37.3 0 1-.91-.04q-.67-.25-1.39-.11a1.68 1.02-63.5 0 0-.81.51q-1.42 1.53-2.69 1.68a2.45 2.45-80.8 0 0-1.93 1.39q-1.4 2.96 1.4 1.42 4.91-2.68 10.49-3.38.47-.05.89-.37l3.77-2.84a1.11.85 29.6 0 1 .87-.12q2.38.68 7.29-.84.84-.26 1.72-.24.94.02.28.87-.22.29-.62.44-.9.34-1.79.69-.84.33-1.63 1-3 2.56-6.68 3.72-5.39 1.7-5.91 1.92-8.43 3.58-16.86 7.15a1.08.82-90 0 0-.52.68l-.88 3.54a1.15.65-66.2 0 0 .09.89q.81 1.04 2.29.56zm-23.99-19.26q1.02 1.61 2.31.98a1.84 1.29-45.3 0 1 .93-.17q2.83.43 3.39-1.9.51-2.09-1.38-1.44l-5.04 1.73a.56.49 63.6 0 0-.21.8z"/><path fill="#A81E83" d="m116.59 131.32-.57-.8q-.34-.49.29-.39 2.49.4 3.92 2.45a.75.63 49.2 0 1 .01.84q-.55.66-1.54.29-.51-.19-.96-.16-2.27.13-1.11-1.48a.72.58 48.4 0 0-.04-.75z"/><path fill="#D137A9" d="M107.48 133.75q-.71.21-1.67-.06-5.83-1.65-8.06-1.44-1.89.18-1-.86.28-.33.76-.43 3.29-.69 8.55-.02 1.92.24 2.83.96a1.35 1.24 61.1 0 0 .86.29q1.6-.09 2 1.58.38 1.56-1.09.94l-2.27-.95a1.54.97-31.8 0 0-.91-.01z"/><path fill="#C833A0" d="M120.96 136.57a2.37 2.37 2.1 0 1-1.76 1.63q-3.74.83-2.91-.72a1.11.77 4.1 0 1 .77-.46q1.25-.17 2.12-1.02.53-.52.93-.63 1.31-.35.85 1.2z"/><path fill="#DA39AF" d="M105.7 136.88q.61.07.14.49-1.16 1.04-.99 3.14.1 1.27-.83 1.43-.73.13-1.2-.48-.59-.78.08-1.6a1.03.72-39.7 0 0 .23-.84q-.48-1.56-1.94-1.46-1.8.13-1.19-.85a.85.83 19.2 0 1 .81-.38l4.89.55z"/><rect fill="#DF48B7" x="-7.43" y="-1.44" width="14.86" height="2.88" rx="1.25" transform="rotate(29.1 -179.422 436.834)"/><path fill="#E03EB5" d="M231.5 152.04q4.9-.61 9.67-1.91 2.91-.79 5.08-2.88 2.12-2.04 2.25.75.08 1.8-.57 3.47-1.7 4.33-3.3 8.69-2.77 7.55-6.78 14.45-5 8.62-8.89 13.18-7.61 8.91-19.24 12.73-.1.03-1.46.31-1.07.22-1.6 1.02-.9 1.35-2.52 1.4-10.93.28-21.8.29-11.63.01-17.59-1.3-9.05-1.98-16.56-6.68-4.31-2.69-5.2-3.04-6.69-2.68-11.13-8.27a1.63 1.49 54.5 0 0-2.04-.44l-7.03 4.44q-1.82-1.4-2.62-.25-1.04 1.49-2.8 1.03-4.36-1.14-5.88 1.28a1.23 1.2-80.7 0 1-.73.54q-.98.26-1.76.94-.93.03-1.57.58-1.07.93-1.12.96-12.13 7.47-26.56 6.38-.19-.69.12-1.12.23-.33.89-.36 7.19-.3 13.31-3.8.83-.47 3.42-1.62 1.76-.78 3.21-2.14 1.6-1.5-.59-1.39-1.25.06-2.26 1.38a1.97 1.32-72.1 0 1-.76.6l-13.15 4.95q-.95.36-2.08.3-2.55-.15-4.97.18-.44.06-.77.02-1.67-.24-.17-.98.31-.15.75-.23 3.62-.67 6.8-2.54l2.07.81a1.26.84 35.6 0 0 .88.03q13.36-5.92 16.11-6.99 5.56-2.14 10.38-5.58.77-.54 1.61-.86.85-.32 1.7-.66 1.98.46 5.03-3.28a1.75 1.74-30.9 0 0 .37-1.45q-.03-.14-.65-.27l6.12-3.05a.82.74 56.9 0 1 .94.25q8.92 11.08 20.66 18.67 2.22 1.43 5.56 2.33 3.96 1.07 7.75 2.64.45.19.98.15 1.97-.17 3.84.32 3.2.84 3.24.84 8.7 1.56 10.91 1.14 5.28-1 9.75-.25 2.87.48 5.02-.31 1.82-.67 3.65-1.31 1.42-.5 3.76-.77 3.16-.38 6.11-1.66.41-.17.95-.13.83.07 1.57-.21.58-.23 1.12-1.01 3.59-5.27 10.26-9.16 3.18-1.86 6.22-5.62.05-.07 2.61-2.73 2.65-2.76.93-6.46-.74-1.59-1.63-.08-.91 1.54-2.24 2.65-.92.77-3.08 1.25-2.43.53-4.47 1.93-1.43.97-3.11 1.36-3.34.79-2.43 2.55a.81.8 70.3 0 1-.54 1.16l-3.2.7a1.44 1.26 50.4 0 1-.93-.15q-1.85-.99-4-.86a.93.79-16.6 0 1-.8-.35l-.76-1.12a.93.75-14.8 0 0-.76-.34l-6.73.22q-2.95.1-4 .44-3.54 1.16-2.99-1.63a1.56 1.56-84.3 0 0-1.52-1.86q-10.6-.07-21.01-1.94-.07-.02-2.55-.78-1.42-.44-2.97-.14a1.89 1.22-29.8 0 1-.96-.05q-2.5-.96-2.59-3.79a1.58.93-76.6 0 0-.28-.91l-4.05-4.93q-1.09-1.34-3.26-.83-8.71 2.04-7.26-5.08a.87.61-71.9 0 0-.25-.83l-2.55-1.61q-.63-.39-.76-.57-1.54-2.02-2.33-2.48-1.76-1.02-2.87.57-.34.5-.69.69-1.38.73-.85-.54.14-.33.47-.56.76-.5 1.51-1a1 .95 75.2 0 0 .43-.78q.08-2.2 2-.88 3.16 2.18 4.94 3.28.62.39 3.08 1.06 2.28.63 3.37 3.03.89 1.99 2.62 1.76 2.5-.35 2.68-.33 4.38.49 8.18 2.83 1.55.95 9.89 4.36 2.52 1.04 1.32 1.42-.93.28-3.95.14a3.04 3.04 28.4 0 0-1.92.57q-1.56 1.14.56 1.85.59.2 1.6.31 6.75.72 13.45 1.83a.95.85-63.1 0 0 .8-.31q.47-.52 1.07-.84.5-.27 1.29-.23 2.92.15 5.83-.04 2.57-.17 3.77-.8.51-.27.91-.28 7.46-.25 14.87.35 3.44.28 6.2-.45 5.3-1.41 10.37-3.54 2.6-1.1 4.33-3.36a.89.88 23.1 0 0-.57-1.41q-1.27-.2-2.63.11-2.04.46-2.56.5-5.1.4-10.21-.15-3.33-.35-6.42.84-1.73.67-.06 1.19 3.59 1.11 7.33 1.46.45.05.82.19 2.29.92-.33 1.1-7.35.51-13.22-3.55-.06-.04-1.78-1.81-.93-.95-2.34-1-1.92-.07-2.41-.22-4.12-1.28-8.01-4.35-1.17-.92-2.6-1.36-8.86-2.67-17.28-3.9-2.43-.36-4.27-1.98-2-1.77-4.93-.76a1.6 1.52 42.9 0 1-.96.01l-5.46-1.64q-2.49-.75.19-2.69 2.05-1.48 4.19-.19.96.58 2.73.41 1.9-.2 2.68-.12 6.27.57 15.15 3.65l14.06 4.88q3.87 1.35 7.34 3.02 5.59 2.69 7.1 3.6 2.97 1.79 6.33.56 1.66-.61 4.35-.51l10.76.41a.9.82-72.7 0 0 .77-.45q1.23-2.15-.46-4.22zm-108.02 28.47a1.13 1.06-69.2 0 0 .72-.35l2.4-2.62a1.03.64-39.2 0 0 .29-.85q-.14-.46-.7-.25-2.37.85-4.14 3.16a.55.4-56.1 0 0 .03.74q.44.23 1.4.17z"/><path fill="#D137A9" d="M123.03 144.46q.69-1.69 1.55-.04l1.23 2.36a.82.82 71.3 0 1-.58 1.19q-3.91.67-2.2-3.51z"/><path fill="#C833A0" d="M16.04 150.5q-.33 1.3-1.36.31-.7-.67-1.62-.75a.54.49-84.9 0 0-.53.49q-.27 2.86-2.72.88-.99-.8-2.27-.68-1.27-5.87 3.14-4.16 1.06.42 2.69 1.89 1.24 1.13 2.67 2.02z"/><path fill="#A81E83" d="m51.75 156.71-16.31 6.79q-.92.39-.02.86 2.57 1.36 5.33 1.14 1.28-.1 2.64.68a1.57 1.35 52.9 0 0 .92.2q5.1-.54 10.19-1.13 2.99-.35 4.74-3.07a1.58.93-71.7 0 1 .72-.63q.94-.3 1.56.36a.51.46-39.5 0 1-.11.71q-5.36 4.02-11.91 5.67l-2.25.04q-.59.01-.95.13-1 .32-2.49-.27-4.9-1.95-5.28 2.56a.67.65-77.7 0 0 .43.69q1.52.55 3.08 0 .51-.18.95-.12 2.44.32 4.87.63.38.05.79-.01 3-.39.44.9-.33.16-.71.2-3.2.38-6.38.94a.62.52-5.4 0 0-.51.52v.44a.94.74 16.3 0 0 .52.73q3.4 1.63 6.92.57 2.48-.75 2.71-.81 1.7-.45 4.61-1.43.92-.31.88.44-.02.33-.32.66-2.3 2.5-4.81 2.65-4.83.29-6.21.86-1.85.76-.87 2.02a.88.77-22.3 0 0 .82.28q2.99-.55 6-.97 3.83-.53 2.1 1.45a1.39 1.17 13.9 0 1-.83.41q-1.75.17-3.49.48-1.98.35-2.38 1.44-.58 1.61 4.22 1.89 1.47.09.41 1.11-1.53 1.48.24 1.93a1.39 1.1-47 0 0 .93-.14q3.56-1.91 7.55-2.56 1.89-.31 1.63.76a1.45.74-23.1 0 1-.61.73l-2.72 1.81-2.04 1.29q-4 2.27-.05 3.17a1.44 1.43-13 0 1 .79.49q1.69 2.09 3.26 2.05 6.39-.18 14.36 3.85a1.89 1.29-26.9 0 0 1 .13l3.64-.52q14.43 1.09 26.56-6.38.05-.03 1.12-.96.64-.55 1.57-.58-.06 1.21.78 1.88a.81.64-38.5 0 0 .83 0q2.38-1.41 4.89-.46l-9.46 5.79q-.39-1.97-2.35-1.06-5.7 2.63-12.17 3.56-4.89.7-12.56.73-5.51.02-10.99-.61-4.38-.5-8.98-.56-5.95-.07-8.99-1.06-1.9-.62-2 .71-11.28-4.18-20-12.42 1.4-1.34 2.53-.26 1.17 1.11 1.22 1.14 11.15 7.71 24.67 9.51.68.09 1.15-.05 1.32-.37.36-1.38-.4-.42-1.16-.55-3.63-.64-5.71-1.76-6.22-3.35-10.62-5.13-4.66-1.88-8.05-5-1.91-1.75-4.1-3.15-6.31-4.02-8.75-11.42-1.68-5.1-2.73-6.05-1.12-1.03-4.12-4.63-.84-1-1.65.19-2.38-4.26-3.5-9 1.28-.12 2.27.68 2.45 1.98 2.72-.88a.54.49-84.9 0 1 .53-.49q.92.08 1.62.75 1.03.99 1.36-.31 3.37 1.27 5.15 2.31 3.11 1.83 6.31.73-.08 1.98 1.36 1.33.84-.38 1.37-.43 9.97-.86 18.83-5.46a1.65 1.22-46.7 0 1 .94-.17q1.91.32 1.15 2.17a1.36 1.14-4.6 0 1-.67.66q-7.21 3.13-16.95 5.37a1.31 1.3 82 0 0-1 1.33q.15 2.9 2.88 2.04.98-.31 1.08-.34 6.73-1.75 13.32-3.98 1.04-.35 1.94.65z"/><path fill="#D137A9" d="M116.01 152.01q-1.09-.3-.16-.94.85-.58 2.33-.72a.43.4.9 0 1 .47.46q-.29 1.86-2.64 1.2z"/><path fill="#DF48B7" d="M185.56 157.94q6.45 3.05 13.44 4.56 1.59.34 2.05 1.46a.39.37-11.3 0 1-.36.51q-1.48.03-2.77-.71a1.44 1.31 52.9 0 0-.91-.17q-3.15.53-6.21-.11-1.81-.38-3.45-1.98-1.4-1.36-2.97-2.85a2.27 2.25-22 0 0-1.48-.62q-3.52-.11-5.87-1.27-3.58-1.77-7.29-3.25-1.58-.63-.44-1.29.4-.23.95-.15 3.52.52 6.64 2.23 2.8 1.53 5.86 2.45.83.25 2.81 1.19z"/><path fill="#A81E83" d="M123.46 160.35q2.22-3.55 2.72-1.09a1.38 1.32-35.8 0 1-.17.93q-.93 1.52-2.04 1.31a.76.76-68.9 0 1-.51-1.15z"/><ellipse fill="#D137A9" rx="1.68" ry=".67" transform="rotate(134 25.85 105.641)"/><path fill="#BE2B96" d="M28 188.29q-5.47-5.24-6.44-6.85-2.75-4.59-10.52-21.69.81-1.19 1.65-.19 3 3.6 4.12 4.63 1.05.95 2.73 6.05 2.44 7.4 8.75 11.42 2.19 1.4 4.1 3.15 3.39 3.12 8.05 5 4.4 1.78 10.62 5.13 2.08 1.12 5.71 1.76.76.13 1.16.55.96 1.01-.36 1.38-.47.14-1.15.05-13.52-1.8-24.67-9.51-.05-.03-1.22-1.14-1.13-1.08-2.53.26z"/><path fill="#B6278E" d="M43.01 163.53a.56.49 63.6 0 1 .21-.8l5.04-1.73q1.89-.65 1.38 1.44-.56 2.33-3.39 1.9a1.84 1.29-45.3 0 0-.93.17q-1.29.63-2.31-.98z"/><path fill="#C22D9A" d="M67 182.79q3.39-.81 6.34-2.68Q79.96 175.94 90 173q3.87-1.13 9.02-4.53.08-.05.72-.67.44-.43 1.05-.26.52.16.08.54-7.31 6.31-15.39 11.59-.43.28.07.36 2.29.34 4.3-.7 2.46-1.27 2.54-1.3 5.09-2.12 9.72-5.15 1.54-1.01 3.4-.88 1.85.13.24 1.04-8.96 5.1-18.75 9-5.14 1.02-6.25 1.71-1.39.86-2.96 1.02-2.35.23-3 .42-2.36.71-4.74 1.36-1.3.36-4.82.67-3.39.29-6.44 2.03l2.72-1.81a1.45.74-23.1 0 0 .61-.73q.26-1.07-1.63-.76-3.99.65-7.55 2.56a1.39 1.1-47 0 1-.93.14q-1.77-.45-.24-1.93 1.06-1.02-.41-1.11-4.8-.28-4.22-1.89.4-1.09 2.38-1.44 1.74-.31 3.49-.48a1.39 1.17 13.9 0 0 .83-.41q1.73-1.98-2.1-1.45-3.01.42-6 .97a.88.77-22.3 0 1-.82-.28q-.98-1.26.87-2.02 1.38-.57 6.21-.86 2.51-.15 4.81-2.65.3-.33.32-.66.04-.75-.88-.44-2.91.98-4.61 1.43-.23.06-2.71.81-3.52 1.06-6.92-.57a.94.74 16.3 0 1-.52-.73v-.44a.62.52-5.4 0 1 .51-.52q3.18-.56 6.38-.94.38-.04.71-.2 2.56-1.29-.44-.9-.41.06-.79.01-2.43-.31-4.87-.63-.44-.06-.95.12-1.56.55-3.08 0a.67.65-77.7 0 1-.43-.69q.38-4.51 5.28-2.56 1.49.59 2.49.27.36-.12.95-.13l2.25-.04q-2 4.35 1.51 2.72.93-.43 2.05-.81 1.86-.62 4.25-2.14 3.26-2.05 8.89-2.93a.56.53-10 0 1 .63.41q.31 1.41-1.01 2.28-.94.62-.43 1.32a.8.7-25.9 0 0 .84.23l2.29-.71a1.39 1.02-33.8 0 1 .93.04q1.48.76.37 1.67-.42.34-1.24.47-3.3.54-7.64 2.6-2.01.95-.39 1.84a1.41 1.03-30.6 0 0 .93.09q2.43-.56 1.22 1.63a1.5 1.32 1.4 0 1-.73.61q-2.5.94-4.8 2.27-1.92 1.11-2.04 2.4-.16 1.73 2.39 3.14a1.78 1.72 55.5 0 0 1.08.22q4.29-.5 8.4-2.85z"/><ellipse fill="#DA39AF" rx="3.25" ry=".54" transform="rotate(131.1 19.94 110.649)"/><path fill="#D137A9" d="M116.5 179.04q-.26.29-.25.67-.85.34-1.7.66-.84.32-1.61.86-4.82 3.44-10.38 5.58-2.75 1.07-16.11 6.99a1.26.84 35.6 0 1-.88-.03l-2.07-.81q2.71-1.52 5.44-3.02 1.4-.77.75-2.11a.38.37-21.9 0 0-.46-.19q-5.7 1.98-9.55 1.54-2.72-.3-2.76-.3-3.18-.07-5.61.68-7.24 2.24-13.82 1.96a.87.55-3.6 0 1-.76-.42q-.08-.25.02-.56l2.04-1.29q3.05-1.74 6.44-2.03 3.52-.31 4.82-.67 2.38-.65 4.74-1.36.65-.19 3-.42 1.57-.16 2.96-1.02 1.11-.69 6.25-1.71l-.86.91a.36.28-56.2 0 0 .04.55l3.82 1.2a1.15.7-47.6 0 0 .9-.26q3.84-2.93 6.41-4.38 1.72-.96 2.16.64a.89.73 86.2 0 0 .58.62q3 .71 5.38-1.39 2.12-1.88 4.55-3.99.52-.46.52.24 0 2.02-2.06 3.12a2.09 2.09-11.8 0 0-1.1 1.68q-.08.97.43 1.2a.94.53-47.4 0 0 .84-.27q1.68-1.51 3.58-1.47 2.51.05 1.37-1.56a.68.64 45.6 0 1-.01-.78q1.46-1.97 1.64-3.16.44-2.99 1.24-1.17a2.09 2.08 50.5 0 1-.19 2.01q-2.26 3.27.26 3.26z"/><path fill="#A81E83" d="M121 174.71q.62.13.65.27a1.75 1.74-30.9 0 1-.37 1.45q-3.05 3.74-5.03 3.28-.01-.38.25-.67l4.5-4.33z"/><ellipse fill="#E03EB5" rx="6.33" ry="1.19" transform="rotate(11.9 -771.149 819.686)"/><path fill="#A81E83" d="M123.48 180.51q-.96.06-1.4-.17a.55.4-56.1 0 1-.03-.74q1.77-2.31 4.14-3.16.56-.21.7.25a1.03.64-39.2 0 1-.29.85l-2.4 2.62a1.13 1.06-69.2 0 1-.72.35z"/><path fill="#E03EB5" d="M195.77 180.45q-.65 2.07-3.27 2.55-13.29 2.41-29.5 1.75-5.08-.21-8.48-1.61a1.13.97 6.4 0 1-.63-.67q-.45-1.55 1.48-1.32 1.16.13 1.26.13 15 .79 25.62-.28 8.75-.88 13.72-.94.69 0 .12.19l-.13.04a.3.19-7.7 0 0-.19.16z"/><path fill="#BE2B96" d="M83.5 192.96q-3.18 1.87-6.8 2.54-.44.08-.75.23-1.5.74.17.98.33.04.77-.02 2.42-.33 4.97-.18 1.13.06 2.08-.3l13.15-4.95a1.97 1.32-72.1 0 0 .76-.6q1.01-1.32 2.26-1.38 2.19-.11.59 1.39-1.45 1.36-3.21 2.14-2.59 1.15-3.42 1.62-6.12 3.5-13.31 3.8-.66.03-.89.36-.31.43-.12 1.12l-3.64.52a1.89 1.29-26.9 0 1-1-.13q-7.97-4.03-14.36-3.85-1.57.04-3.26-2.05a1.44 1.43-13 0 0-.79-.49q-3.95-.9.05-3.17-.1.31-.02.56a.87.55-3.6 0 0 .76.42q6.58.28 13.82-1.96 2.43-.75 5.61-.68.04 0 2.76.3 3.85.44 9.55-1.54a.38.37-21.9 0 1 .46.19q.65 1.34-.75 2.11-2.73 1.5-5.44 3.02z"/><path fill="#C833A0" d="m122.79 188.25-7.29 4.96q-2.51-.95-4.89.46a.81.64-38.5 0 1-.83 0q-.84-.67-.78-1.88.78-.68 1.76-.94a1.23 1.2-80.7 0 0 .73-.54q1.52-2.42 5.88-1.28 1.76.46 2.8-1.03.8-1.15 2.62.25z"/><path fill="#D137A9" d="M106.04 199q-6.41 3.62-13.48 4.97-5.28 1.01-14.14 1.53-15.59.92-30.42-4.79.1-1.33 2-.71 3.04.99 8.99 1.06 4.6.06 8.98.56 5.48.63 10.99.61 7.67-.03 12.56-.73 6.47-.93 12.17-3.56 1.96-.91 2.35 1.06z"/></svg>